<?xml version="1.0" encoding="utf-8"?>
<!-- Generator: Adobe Illustrator 18.0.0, SVG Export Plug-In . SVG Version: 6.00 Build 0)  -->
<!DOCTYPE svg PUBLIC "-//W3C//DTD SVG 1.1//EN" "http://www.w3.org/Graphics/SVG/1.1/DTD/svg11.dtd">
<svg version="1.1" id="Слой_1" xmlns="http://www.w3.org/2000/svg" xmlns:xlink="http://www.w3.org/1999/xlink" x="0px" y="0px"
	 viewBox="0 0 1029 619.8" enable-background="new 0 0 1029 619.8" xml:space="preserve">
<path fill="none" stroke="#000000" stroke-width="2" stroke-linecap="round" stroke-linejoin="round" stroke-miterlimit="10" d="
	M983.7,198.7c8.8-7.6,3.5-10,3.5-10l-8,6c-2.3,2.1-8,9-8,9c-4.9,9.7-4.9,17.7-4.9,17.7c-3.6,11.3-13.1,16.7-21.7,22.9l-43.6,31.3
	c-7,4.2-44.1,15.7-44.1,15.7c-24.4,3.3-44.1-4.7-44.1-4.7l1.9-4.7c-3.3-7.5-16.4-16-16.4-16l4.7-5.6c0.9-2.3,11.3-9.2,11.3-9.2
	c6.1-4.2,10.4-11.9,10.4-11.9h2.7c8-5.6,11.7-25,11.7-25l-3.3-7.3c7-31-17.9-41.5-17.9-41.5s-24.6-17.6-44.9,2c0,0-4.8,3-9.2,8.6
	c-8.1-6-21.1-14.7-37.2-22.4c-36.2-17.2-70.4-20.6-99-9.6l-0.4,0.1l-0.3,0.3c-0.6,0.4-5.4,5.8-3.8,10.7c1.9,5.9,12.3,9.8,32.7,11
	c0,0,0,0,0,0c1,0,19.7-1.3,45.2,9.2l-159.6,38.4c-7.2,1.8-10.9,11.2-8.4,21.6l0.1,0.2c-2.8,2.1-4.1,6.8-2.9,11.7l4.6,18.6
	c1.2,4.9,4.5,8.5,8,9.1l0.9,3.5c2.5,10.3,10.4,17.3,17.6,15.5l7.3-1.8c3,4.8,8.9,7.4,14.7,5.9l1.6-0.4c0.2,0.9,0.4,1.9,0.6,2.9
	l2.2,10.3c0,0-12.5,17.4-25.6,17.4c0,0-29.4-0.5-50,28.3c0,0-3.8,4.9-21.2,7.6c0,0-83.8,4.4-111.5,12.5c0,0-19-1.6-23.4,0
	c0,0-6-3.8-12.5-12.5c0,0-14.7-41.9-94.7-55.5c0,0-4.9-9.1-13.6-10.3c0,0-3.8-20.2-32.6-14.2c0,0-56,7.1-86.5-2.2
	c0,0-67.5-9.2-110.4,3.3c0,0,2.7,32.5,0,39.4c0,0-3.8,14,9.2,26.5c0,0,13.1,9.8,15.8,22.3c0,0,68.5,0,115.3-29.1
	c0,0,13.6-5.7,25.6-7.4c0,0,32.1-3.3,41.9-9.8c0,0,15.8-2.5,33.2,11.9c0,0,68,55.5,72.3,67.5c0,0,14.1,23.9,34.8,23.4
	c0,0,28.8,6,38.1,6c0,0,90.5,12.6,105.2,8.2c0,0,0,12.6-8.9,21.7c0,0-19.6,18.5-37,51.1c0,0-21.8,38.6-26.7,38.6
	c0,0-1.1,4.4-15.8-3.3c0,0-17.4-19.6-89.8-24.5c0,0-21.2-0.5-28.3-16.9c0,0,3.8-23.9-22.8-17.4c0,0-23.9,6.5-46.2-3.3
	c0,0-20.1-7.6-24.5-7.1c0,0-62.6-35.4-82.1-81.1c0,0-12.5-12-6,18c0,0,31,75.1,144.7,117c0,0,48.4,19.6,60.9,25.6l93,43.5
	c0,0,20.1,12,36.4,0l39.2-26.7c0,0,93-75.6,103.4-101.2c0,0,14.7-18,24.5-25.6l32.6-14.1c0,0,8,11.8,27.7,13.6
	c0,0,50.8,8.8,45.7,0.5c0,0-10.3-4.4-19.6-5c0,0,13.3-1.7,26.7,0.1c0,0,2.3,0.2,3.7-2.8c0,0,6.9-2.1,1.3-6.1c0,0-8.9-5-15.8-5
	c0,0,4.5-3.1,17.6-0.6c0,0,7.3-4.3-6.3-7c0,0-4.1-0.6-9.6-1c-4.4-0.4-10.5,0.8-13.9,0.8c0,0-7.9,0.2-7.9-2.5c0,0,12.1-1.3,14.4-7
	c0,0,0.1-3.9-5.6-2.5c0,0,57.3-33.1,71.9-52.3c0,0,8.2-7.8,9.6-10.2c0,0,11.1-12.9,36.1-11c0,0,64.2-5.6,94.4-35.5
	c0,0,7.8-3.1,15.1-11.3c24.9-15.4,57.1-59.7,57.1-59.7c10.5-3.6,17.4-13.6,17.4-13.6c2.2-1.5,4.9-5.3,7.3-8.2c3-3.8,5.6-5.8,5.6-5.8
	c8.6-8.5,7.9-14,7.2-14.9c-1.6-2.1-4.2,2.9-4.2,2.9c-2.8,5.7-8.8,9.6-8.8,9.6l5.3-7.7c6.3-15.2,0.5-13.7,0.5-13.7l-0.3-2.4
	c-2.5-2.3-5-0.4-5-0.4c-0.5-2.9-4.3-2-6.1,1.8c-0.5,1.1-3.9,5.7-3.9,5.7c-3.1,4.8-8.7,8-9.4,8.6c-5.5,5.1-6.3,5.3-10.2,7.3
	L983.7,198.7z M756.5,195.2c-6-7-15.5-11.7-26.4-12.6c-0.9-0.5-1.7-1.1-2.6-1.6c-3.5-7.1-9.8-11.3-15.5-9.9l-2,0.5
	c-30.3-14.2-53.1-14.2-54.4-14.2c-25.1-0.6-27.3-5-27.4-5.5c-0.2-0.7,0.8-2.1,1.6-2.8c52.3-19.7,109.3,16,130.6,31.6
	C758.1,184.6,756.5,189.5,756.5,195.2z M897.5,160.4c0,5-4,9-9,9h0c-5,0-9-4-9-9v0c0-5,4-9,9-9h0
	C893.5,151.4,897.5,155.4,897.5,160.4L897.5,160.4z M875,137.3c0,4-3.3,7.3-7.3,7.3l0,0c-4,0-7.3-3.3-7.3-7.3l0,0
	c0-4,3.3-7.3,7.3-7.3l0,0C871.8,130,875,133.3,875,137.3L875,137.3z M889.7,111.7c0,2.6-2.1,4.8-4.8,4.8h-0.5
	c-2.7,0-4.8-2.1-4.8-4.8v-0.5c0-2.6,2.1-4.8,4.8-4.8h0.5c2.7,0,4.8,2.1,4.8,4.8V111.7z M897.5,137c0,3.6-2.9,6.5-6.5,6.5h-0.6
	c-3.6,0-6.5-2.9-6.5-6.5v-0.6c0-3.6,2.9-6.5,6.5-6.5h0.6c3.6,0,6.5,2.9,6.5,6.5V137z M889.7,70.6c0,3-2.4,5.4-5.4,5.4h-0.5
	c-3,0-5.4-2.4-5.4-5.4v-0.5c0-3,2.4-5.4,5.4-5.4h0.5c3,0,5.4,2.4,5.4,5.4V70.6z M897.5,38c0,3.6-2.9,6.5-6.5,6.5h-0.6
	c-3.6,0-6.5-2.9-6.5-6.5v-0.6c0-3.6,2.9-6.5,6.5-6.5h0.6c3.6,0,6.5,2.9,6.5,6.5V38z M868.3,215.2c0,4.5-3.7,8.2-8.2,8.2h-0.6
	c-4.5,0-8.2-3.7-8.2-8.2v-0.6c0-4.5,3.7-8.2,8.2-8.2h0.6c4.5,0,8.2,3.7,8.2,8.2V215.2z M925.7,58c0,3.7-3,6.8-6.8,6.8l0,0
	c-3.7,0-6.8-3-6.8-6.8l0,0c0-3.7,3-6.8,6.8-6.8l0,0C922.7,51.2,925.7,54.2,925.7,58L925.7,58z M908.9,6.6c0-3.7,3-6.6,6.6-6.6
	s6.6,3,6.6,6.6c0,3.7-3,6.6-6.6,6.6S908.9,10.3,908.9,6.6z"/>
</svg>
